<svg fill="#0051c3" class="c_a c_b c_c c_d" role="presentation" xmlns="http://www.w3.org/2000/svg" viewBox="0 0 16 16" aria-hidden="true" focusable="false"><path d="M13.368 5.197c.008.121.008.243.008.365 0 3.724-2.786 8.02-7.88 8.02v-.003a7.743 7.743 0 01-4.246-1.263 5.5 5.5 0 004.1-1.168A2.78 2.78 0 012.761 9.19c.415.082.842.065 1.25-.048C2.72 8.876 1.79 7.72 1.79 6.379v-.036c.385.218.816.34 1.257.353-1.217-.828-1.592-2.475-.857-3.764a7.816 7.816 0 005.708 2.945A2.852 2.852 0 018.7 3.184a2.739 2.739 0 013.918.122 5.5 5.5 0 001.76-.684 2.821 2.821 0 01-1.219 1.559 5.434 5.434 0 001.591-.444 5.682 5.682 0 01-1.382 1.46z"/></svg>